<?xml version="1.0" ?><svg viewBox="0 0 28.87 28.87" xmlns="http://www.w3.org/2000/svg"><defs><style>.cls-1{fill:#3eb890;}.cls-2{fill:#fff;}</style></defs><title/><g data-name="Layer 2" id="Layer_2"><g data-name="Layer 1" id="Layer_1-2"><rect class="cls-1" height="28.87" rx="6.48" ry="6.48" width="28.87"/><path class="cls-2" d="M22.43,14.88l0-.06a1.38,1.38,0,0,0-1.33-.92,1.47,1.47,0,0,0-.45.08l-1.58.53-1-3h0L19.55,11a1.37,1.37,0,0,0,1-1.62l0-.06a1.37,1.37,0,0,0-1.33-.93,1.54,1.54,0,0,0-.42.06l-1.56.52-.52-1.54A1.4,1.4,0,0,0,14,8.22l0,.06.52,1.54-3,1L11,9.29a1.4,1.4,0,0,0-1.34-1,1.42,1.42,0,0,0-.44.07h0a1.4,1.4,0,0,0-.88,1.77l.52,1.53-1.52.51a1.39,1.39,0,0,0-.9,1.7l0,.06a1.33,1.33,0,0,0,1.3.91,1.48,1.48,0,0,0,.46-.08l1.51-.52h0l1,3-1.51.51a1.4,1.4,0,0,0-.9,1.72l0,.06a1.33,1.33,0,0,0,1.3.9h0a1.57,1.57,0,0,0,.48-.08l1.48-.51.53,1.56a1.4,1.4,0,0,0,1.34,1h0a1.41,1.41,0,0,0,.43-.07h0a1.4,1.4,0,0,0,.88-1.77L14.28,19l3-1,.54,1.59a1.4,1.4,0,0,0,2.67-.86v0l-.54-1.6,1.66-.57a1.91,1.91,0,0,0,.68-.48A1.44,1.44,0,0,0,22.43,14.88Zm-9,1.54-1-3h0l3-1,1,3Z"/></g></g></svg>