<?xml version="1.0" ?><svg id="Capa_1" style="enable-background:new 0 0 531 535;" version="1.1" viewBox="0 0 531 535" xml:space="preserve" xmlns="http://www.w3.org/2000/svg" xmlns:xlink="http://www.w3.org/1999/xlink"><style type="text/css">
	.st0{fill:#4D72AA;}
	.st1{fill:#F1F1F5;}
	.st2{fill:#435289;}
</style><path class="st0" d="M484,524.5H52c-22,0-40-18-40-40v-432c0-22,18-40,40-40h432c22,0,40,18,40,40v432  C524,506.5,506,524.5,484,524.5z"/><circle class="st1" cx="163.8" cy="145.4" r="31.9"/><polygon class="st1" points="132.4,198.6 129.2,423.5 195.8,423.5 195.8,197.7 "/><path class="st1" d="M225.4,198.2v223.2h65.4V291.7c0,0,0.7-31.5,34.7-31.5s32,32,32,32v130.5h59.2v-132  c0,0,5.8-93.1-67.7-93.1c0,0-43.7-4.4-60.6,27.8v-27.9L225.4,198.2z" id="XMLID_2_"/><g><path class="st2" d="M481.5,527h-432C26.1,527,7,507.9,7,484.5v-432C7,29.1,26.1,10,49.5,10h432c23.4,0,42.5,19.1,42.5,42.5v432   C524,507.9,504.9,527,481.5,527z M49.5,15C28.8,15,12,31.8,12,52.5v432c0,20.7,16.8,37.5,37.5,37.5h432c20.7,0,37.5-16.8,37.5-37.5   v-432c0-20.7-16.8-37.5-37.5-37.5H49.5z"/><path class="st2" d="M481.5,534h-432C22.2,534,0,511.8,0,484.5v-432C0,25.2,22.2,3,49.5,3h432C508.8,3,531,25.2,531,52.5v432   C531,511.8,508.8,534,481.5,534z M49.5,22C32.7,22,19,35.7,19,52.5v432c0,16.8,13.7,30.5,30.5,30.5h432c16.8,0,30.5-13.7,30.5-30.5   v-432c0-16.8-13.7-30.5-30.5-30.5H49.5z"/></g><g><path class="st2" d="M185.6,136.5c-3.1-16.1-18.3-28.5-34.6-28.3c-11.7-4-25.7,5.4-30.5,16c-6.3,13.8-2.8,30.3,7.8,40.9   c10.4,10.4,25.8,13.6,39.2,7.4C181.4,166.1,188.5,151.3,185.6,136.5z M151,169.7c-15.4-1.2-27.4-15.6-27.4-30.7   c0-8.1,3.3-16.3,10-21.2c4.7-3.4,9.7-4.6,15-4.7c16.1,1.4,31.2,11.2,32.1,28.7C181.5,158.2,167.1,170.9,151,169.7z"/><path class="st2" d="M153.2,178.2c-9.7,0-19.3-3.9-26.7-11.3c-11.6-11.6-14.9-29.2-8.3-43.7c2.6-5.7,7.7-11.2,13.7-14.6   c6.6-3.8,13.5-4.8,19.5-2.9c17.3,0,33.4,13.2,36.7,30.3c3.1,16.1-4.9,32-19.5,38.7C163.6,177.1,158.4,178.2,153.2,178.2z    M145.3,109.8c-9.1,0-18.8,7.3-22.5,15.5c-5.8,12.7-2.8,28,7.3,38.1c9.9,9.9,24.1,12.6,36.4,6.9c12.5-5.8,19.4-19.4,16.7-33.3l0,0   c-2.9-14.9-17-26.4-32.1-26.3l-0.4,0l-0.4-0.1C148.6,110,147,109.8,145.3,109.8z M153.1,172.3c-0.8,0-1.5,0-2.3-0.1l0,0   c-16.4-1.3-29.7-16.2-29.7-33.2c0-9.5,4.1-18.2,11-23.2c4.7-3.4,9.9-5.1,16.4-5.2l0.1,0l0.1,0c16.4,1.4,33.4,11.6,34.4,31.1   c0.4,8.3-2.7,16.1-8.7,21.9C168.8,169.2,161.1,172.3,153.1,172.3z M151.2,167.2c7.3,0.5,14.6-2.1,19.8-7.2c5-4.8,7.5-11.3,7.2-18.1   c-0.8-16.4-15.5-25-29.7-26.3c-5.4,0.1-9.6,1.5-13.5,4.2c-5.6,4.1-9,11.3-9,19.2C126.1,153.2,137.6,166.1,151.2,167.2z"/></g><g><path class="st2" d="M187.4,191.4c-0.1-1.3-1-2.4-2.4-2.4c-20.6-0.2-41.2-0.6-61.7-0.1c-0.8,0-1.3,0.5-1.6,1   c-0.5-0.1-1.2,0.1-1.4,0.8c-1.4,3.9-1.2,8.2-1.5,12.2c-0.3,4.7-0.6,9.3-0.7,13.9c-0.2,9.3-0.4,18.6-0.6,27.9   c-0.3,18.9-0.5,37.9-0.5,56.8c0,36.9,0.6,73.8,1.8,110.7c-2.5,0.8-2.2,5,0.8,5c19.5-0.3,39.1-0.5,58.6-0.8c2.5,0,6,0.4,7.9-1.7   c2.2-2.3,1.5-6.7,1.6-9.6c0.2-9.6,0.3-19.3,0.5-28.9c0.7-39.5,1.2-79,1.4-118.5C189.8,235.7,189.5,213.5,187.4,191.4z M184,301.6   c-0.3,18.3-0.6,36.5-0.8,54.8c-0.1,9.3-0.2,18.6-0.3,27.9c0,4.3-0.1,8.6-0.1,13c0,2,0,4-0.1,6c0,1.9,0.7,6.2-0.7,7.6   c-1.5,1.5-5.5,0.7-7.6,0.7c-2.6,0-5.3,0.1-7.9,0.1c-5,0.1-9.9,0.1-14.9,0.2c-9.1,0.1-18.1,0.2-27.2,0.3   c-1.2-36.8-1.9-73.7-1.9-110.5c0-18.6,0.1-37.2,0.4-55.8c0.1-9.3,0.3-18.6,0.5-27.9c0.1-4.7,0.1-9.3,0.1-13.9   c-0.1-3.8,0.3-7.8-0.4-11.6c0.1,0,0.3,0.1,0.4,0.1c19.8,0.9,39.7,1.1,59.5,1.3C185.9,229.6,184.5,265.7,184,301.6z"/><path class="st2" d="M119.6,419.7c-2.5,0-4.6-1.7-5-4.2c-0.3-1.8,0.3-3.5,1.6-4.6c-1.2-36.3-1.8-73.1-1.8-109.3   c0-17,0.2-35.6,0.5-56.8l0.6-27.9c0.1-4.5,0.4-8.9,0.7-13.6l0-0.4c0.1-1,0.1-1.9,0.2-2.9c0.1-3.3,0.3-6.6,1.5-9.9   c0.4-1.2,1.4-2.1,2.5-2.4c0.8-0.7,1.8-1.1,2.8-1.1c16.8-0.4,33.9-0.2,50.5,0c3.7,0,7.5,0.1,11.2,0.1c2.6,0,4.6,2,4.9,4.7   c2.3,24,2.4,48.1,2.2,66.5c-0.2,37.2-0.6,76-1.4,118.5c-0.1,4.8-0.2,9.6-0.3,14.5c-0.1,4.8-0.1,9.6-0.2,14.4c0,0.6,0,1.2,0,1.9   c0.1,3,0.1,6.8-2.3,9.4c-2.4,2.6-6,2.5-8.7,2.5c-0.3,0-0.7,0-1,0c-9.7,0.2-19.5,0.3-29.3,0.4C139.2,419.4,129.4,419.5,119.6,419.7z    M119.6,414.6c0,0,0,0.1,0,0.1c0.8,0,1.6,0,2.4,0l-0.1-2.4c-1.3-39.2-1.9-75.4-1.9-110.6c0-20.9,0.1-39.1,0.4-55.8   c0.1-9.3,0.3-18.7,0.5-27.8l0-0.1c0.1-3.4,0.1-6.8,0.1-10.1c-0.2,3.1-0.3,6-0.4,9.1l-0.6,27.9c-0.3,21.2-0.5,39.7-0.5,56.7   c0,36.7,0.6,73.9,1.8,110.6l0.1,1.9L119.6,414.6z M185.2,409.6c-0.2,1.2-0.6,2.3-1.4,3.1c-0.6,0.6-1.3,1-2,1.2   c1.1-0.1,2-0.3,2.5-0.9C184.9,412.3,185.1,411,185.2,409.6z M125.9,195.2c0.1,1.8,0.1,3.6,0.1,5.3c0,1.2,0,2.4,0,3.5   c0,4.6,0,9.3-0.1,14l0,0.1c-0.2,9.1-0.4,18.5-0.5,27.7c-0.3,16.7-0.4,34.9-0.4,55.8c0,34.4,0.6,69.7,1.8,108l24.8-0.3   c2.5,0,5-0.1,7.5-0.1c2.5,0,4.9,0,7.4-0.1c1.3,0,2.6,0,4-0.1c1.3,0,2.7-0.1,4-0.1c0.6,0,1.2,0,1.9,0.1c1,0.1,3.1,0.2,3.8-0.1   c0.3-0.8,0.2-3.1,0.1-4.1c0-0.7-0.1-1.3-0.1-1.7l0-0.1c0.1-1.9,0.1-3.9,0.1-5.9c0-2.2,0-4.4,0.1-6.6c0-2.1,0-4.3,0-6.4l0.3-27.9   c0.2-17.9,0.5-36.1,0.8-53.7l0-1.1c0.1-6.2,0.2-12.4,0.3-18.6c0.5-28.5,1.1-57.9-1.1-86.6C162.7,196.2,144.2,196,125.9,195.2z    M180.1,409.2L180.1,409.2L180.1,409.2z M185.2,403.4c0,0.2,0,0.4,0,0.6c0.1-4.4,0.2-8.9,0.2-13.3c0.1-4.8,0.2-9.7,0.3-14.5   c0.7-37.4,1.1-71.8,1.3-104.9c-0.1,3.9-0.1,7.8-0.2,11.7c-0.1,6.2-0.2,12.4-0.3,18.6l0,0l0,1.1c-0.3,17.6-0.6,35.7-0.8,53.7   l-0.3,27.9c0,2.1,0,4.3,0,6.4c0,2.2-0.1,4.3-0.1,6.5C185.3,399.3,185.3,401.3,185.2,403.4z"/></g><g><path class="st2" d="M410.9,412.4c-0.1-26.2-0.3-52.4-0.4-78.5c0-25.5,0.9-51.4-2.6-76.8c-2.8-20.2-9.6-39-26-52.1   c-14.3-11.4-32.9-17.2-51.1-16.6c-17.9,0.6-38.2,7.8-48.5,23.2c0-2.7,0-5.3,0-8c0-3.9,0.7-8.6-0.1-12.3c-1.1-5.4-8.2-3.6-12.3-3.5   c-17.5,0.2-35,0.5-52.5,1.1c-1.8,0.1-2.3,1.9-1.6,3.1c0,0.1-0.1,0.3-0.1,0.5c-1.7,36.8-0.1,74,0.3,110.8   c0.4,36.9,0.9,73.9,1.2,110.8c0,0.4,0.1,0.8,0.2,1.1c0.1,1,0.8,1.8,2.1,1.8c20.5-0.4,41-1.8,61.6-2.4c2.9-0.1,3.1-4.4,0.4-4.7   c4.3-21.8,3.8-45.3,3-67.3c-0.4-11.7-1.5-23.3-2.3-34.9c-0.8-10.9-0.8-22.4,3.9-32.5c4.5-9.8,12.6-16,23.2-18c11-2,22.2,0.2,29,9.8   c6.2,8.9,7.2,20,7.4,30.6c0.2,11.7,0.1,23.4,0.2,35.1c0.1,26.7,0.2,53.3,0.4,80c-0.2,0-0.3,0-0.5,0c-2.4,0.1-2.4,3.5,0,3.8   c20.4,1.8,41,0.7,61.4-0.9c1.4,0.7,3.5,0.1,3.7-1.8C411,413.3,411,412.8,410.9,412.4z M351.6,412.5c-0.1-26.6-0.2-53.2-0.3-79.8   c-0.1-12.9,0.2-25.8-0.3-38.7c-0.4-10.3-2-21-8-29.7c-11.5-16.6-37.3-17.1-52.1-4.5c-17.7,15.1-14.5,40.6-12.8,61.2   c1.2,15.1,1.7,30.2,1.5,45.3c-0.2,14.6-1.8,29.1-1.9,43.7c-18.5,0.3-37,0.6-55.4,2.3c-0.5-36.3-0.8-72.6-1.1-108.9   c-0.3-36.7,0.4-73.7-2-110.4c14,0.1,28,0.1,42-0.1c3.6,0,7.1-0.1,10.7-0.1c0.9,0,3.9-0.5,5.2-0.3c-0.2,0.4,0.2,2,0.2,2.6   c0,7.3-0.2,14.7,0,22.1c0,1.1,0.7,1.9,1.5,2.2c0.4,1,1.8,1.4,2.6,0.2c20.5-33,70.1-33.1,98-10.1c16.2,13.4,21.8,33,24.2,53.1   c2.7,23.3,2,46.9,2.1,70.3c0.1,26.1,0,52.1,0.1,78.2C387.8,411.9,369.7,411.9,351.6,412.5z"/><path class="st2" d="M368.2,419.9c-7.5,0-15.1-0.3-22.7-0.9c-2.5-0.3-4.2-2.3-4.1-4.7c0.1-1.6,1-2.9,2.3-3.6   c-0.2-26.1-0.3-52.5-0.4-78c0-4.7,0-9.4-0.1-14.1c0-6.9,0-14-0.1-21c-0.2-10.3-1.2-20.9-7-29.2c-7.4-10.5-19.8-10-26.5-8.8   c-9.9,1.9-17.2,7.6-21.4,16.6c-4.5,9.8-4.4,21.3-3.7,31.3c0.2,3.5,0.5,6.9,0.8,10.4c0.6,8,1.3,16.4,1.5,24.6   c0.8,21.8,1.2,44.7-2.7,66c1,0.9,1.7,2.3,1.6,3.8c-0.1,2.7-2.1,4.7-4.7,4.8c-9.2,0.3-18.5,0.7-27.5,1.1   c-11.2,0.5-22.8,1.1-34.2,1.3c-2.4,0-4.2-1.5-4.6-3.8c-0.2-0.6-0.3-1.1-0.3-1.6c-0.2-24.6-0.5-49.7-0.8-73.9   c-0.1-12.3-0.3-24.6-0.4-36.8c-0.1-9.8-0.3-19.8-0.5-29.4c-0.5-26.8-1.1-54.4,0.2-81.5c0,0,0-0.1,0-0.1c-0.4-1.2-0.3-2.5,0.3-3.6   c0.7-1.4,2.1-2.2,3.7-2.3c15.2-0.5,31.4-0.9,52.6-1.1c0.6,0,1.4-0.1,2.2-0.2c4.2-0.4,11.2-1,12.6,5.7c0.6,2.8,0.4,6,0.3,9.1   c-0.1,1.3-0.1,2.6-0.1,3.7v0.9c12.1-12.8,31-18.1,45.9-18.6c19.1-0.6,38.3,5.6,52.7,17.1c14.9,11.9,23.5,29,26.9,53.7   c2.9,21.3,2.8,43.1,2.7,64.2c0,4.3-0.1,8.7-0.1,13c0,13.1,0.1,26.2,0.2,39.3c0.1,13,0.1,26,0.2,39c0.1,0.6,0.1,1.3,0,2   c-0.2,1.5-1.1,2.8-2.4,3.6c-1.2,0.7-2.8,0.8-4.1,0.4C394.4,419.1,381.4,419.9,368.2,419.9z M359.1,414.8c11.8,0.4,23.7,0,35.2-0.8   c-6.5,0.2-13.1,0.3-19.4,0.4C369.7,414.5,364.4,414.6,359.1,414.8z M217.6,210.4c-0.4,21.2,0,42.6,0.4,63.4   c0.2,9.7,0.4,19.6,0.5,29.4c0.1,12.3,0.3,24.6,0.4,36.8c0.3,24.3,0.6,49.3,0.8,74c0,0,0,0.2,0.1,0.3l0,0.1c0,0,0,0,0,0l0-2.2   c-0.5-36.3-0.8-73.2-1.1-108.9c-0.1-9-0.1-18.1-0.1-26.9C218.6,254.8,218.5,232.5,217.6,210.4z M348.8,414.2c0.1,0,0.2,0,0.3,0   l-0.3-81.6c0-4.3,0-8.6,0-12.9c0-8.4,0-17.2-0.3-25.7c-0.3-8.6-1.5-19.6-7.6-28.4c-4.5-6.5-11.8-10.8-20.6-11.9   c-10.1-1.3-20.5,1.6-27.9,7.9c-15.8,13.5-13.9,36-12.2,55.9l0.3,3.2c1.2,15.1,1.7,30.4,1.5,45.5c-0.1,7.1-0.5,14.3-0.9,21.2   c-0.3,4.5-0.5,9.1-0.7,13.8c2.7-19,2.3-39.3,1.6-58.6c-0.3-8.2-0.9-16.4-1.5-24.4c-0.3-3.5-0.5-6.9-0.8-10.4   c-0.8-10.6-0.9-22.9,4.1-33.7c4.8-10.5,13.5-17.2,25-19.4c13.6-2.5,24.8,1.4,31.5,10.8c6.6,9.4,7.7,20.9,7.9,32   c0.1,7,0.1,14.2,0.1,21.1c0,4.7,0,9.4,0.1,14.1c0.1,26.2,0.2,53.2,0.4,80L348.8,414.2z M263.9,412.7c-11.6,0.2-23.3,0.6-34.9,1.5   c8.2-0.3,16.4-0.6,24.4-1C256.9,413.1,260.4,412.9,263.9,412.7z M408.3,413.4L408.3,413.4c0,0,0.1,0,0.1,0l0-0.1c0-0.2,0-0.3,0-0.3   l-0.1-0.3l0-0.3c0-10.1-0.1-20.2-0.1-30.3c0,9.6,0,19.4,0,29L408.3,413.4z M315.6,248.5c1.8,0,3.6,0.1,5.4,0.3   c10.2,1.3,18.7,6.3,24,14c6.8,9.9,8.1,21.8,8.4,31c0.3,8.7,0.3,17.4,0.3,25.9c0,4.3,0,8.6,0,12.9l0.3,77.2   c6.9-0.2,13.9-0.3,20.7-0.5c9.4-0.2,19-0.4,28.5-0.7c0-12.3,0-24.7,0-36.7c0-12.8,0-26,0-39.1c0-4.5,0-8.9,0-13.4   c0-18.6,0.1-37.9-2.1-56.6c-2-16.6-6.4-37.5-23.3-51.5c-14.9-12.3-36.5-17.9-56.4-14.6c-16.4,2.7-29.9,11.3-37.9,24.1   c-0.9,1.4-2.3,2.1-3.8,1.9c-1.1-0.1-2.1-0.7-2.7-1.5c-1.4-0.9-2.2-2.4-2.2-4.1c-0.1-4.9-0.1-9.9,0-14.8c0-2.4,0-4.9,0-7.3   c0,0,0,0,0-0.1c-0.4,0-0.8,0.1-1.1,0.1c-0.8,0.1-1.4,0.1-1.8,0.1c-1.8,0-3.6,0-5.3,0c-1.8,0-3.6,0.1-5.4,0.1   c-11.8,0.2-24.7,0.2-39.3,0.1c1.7,27,1.7,54.4,1.7,81c0,8.8,0,17.9,0.1,26.9c0.3,34.8,0.6,70.8,1.1,106.2c16.8-1.4,33.9-1.8,50.5-2   c0.1-6.8,0.5-13.6,0.9-20.3c0.4-6.9,0.8-14,0.9-21c0.2-15-0.3-30.1-1.5-45.1l-0.3-3.2c-1.7-20-3.8-44.9,13.9-60.1   C296.4,251.9,305.9,248.5,315.6,248.5z M332.7,190.9c17.6,0,35.3,6,48.3,16.7c15.7,13,21.4,31.1,24,47.1   c-3.5-21.9-11.4-37.1-24.7-47.7c-13.5-10.8-31.4-16.6-49.3-16.1C331.6,190.9,332.2,190.9,332.7,190.9z M279.8,217.1L279.8,217.1   l0-13.5c0-1.3,0.1-2.6,0.1-4c0.1-2.5,0.3-5-0.1-7.1l-0.3,0.6c0,0.2,0.1,0.4,0.1,0.6c0.1,0.5,0.1,0.9,0.1,1.4c0,2.4,0,4.9,0,7.3   C279.7,207.2,279.7,212.2,279.8,217.1z M275.8,190c-0.9,0-2,0.1-3.3,0.2c-0.9,0.1-1.8,0.2-2.6,0.2c-2.8,0-5.4,0.1-8,0.1   c1.5,0,3.1,0,4.6,0c1.8,0,3.6-0.1,5.4-0.1c0.2,0,0.8-0.1,1.3-0.1c1.1-0.1,2.2-0.2,3-0.2C276.1,190,276,190,275.8,190z"/></g></svg>