<?xml version="1.0" ?><svg id="Capa_1" style="enable-background:new 0 0 531 531;" version="1.1" viewBox="0 0 531 531" xml:space="preserve" xmlns="http://www.w3.org/2000/svg" xmlns:xlink="http://www.w3.org/1999/xlink"><style type="text/css">
	.st0{fill:#78B4D7;}
	.st1{fill:#F1F1F5;}
	.st2{fill:#435289;}
</style><path class="st0" d="M484,521.5H52c-22,0-40-18-40-40v-432c0-22,18-40,40-40h432c22,0,40,18,40,40v432  C524,503.5,506,521.5,484,521.5z"/><path class="st1" d="M415.9,191.7c-5.1,5.3-10.8,10.3-15.2,16.1c-4,5.2-4.3,10.9-4.8,17.2c-0.6,6.9-1.5,13.7-2.8,20.5  c-4.8,25.4-14.3,49.9-28.5,71.6c-15.1,23-35.1,40.9-59,54.3c-26,14.6-52,28.3-82.6,28.4c-27.9,0.1-54.7-8.7-78.6-22.6  c25.1,0.1,49.6-9.4,67.8-27.2c1.4-1.4,0.9-4.5-1.3-4.8c-22.7-3.7-42.8-18.3-53.1-38.9c9,1.4,18.1,1.3,27.1-0.2  c2.9-0.5,2.5-4.7,0-5.4c-26.8-8-47.7-31.5-52.7-59c7.5,3.8,15.8,5.7,24.3,5.7c2.3,0,3.9-3.2,2-4.8c-22.2-19-24.1-48.7-20.6-75.9  c9.1,18.2,31.2,28.5,48.4,37.5c26.7,13.9,55.7,25.9,86.3,22c1.6,0.6,3.9-0.6,3.3-2.8c-6.7-26.5,5.9-55.4,31-66.9  c12.4-5.7,26.6-6.7,39.7-2.9c13.3,3.8,25.5,11.3,39.3,13.2c12.6,1.8,23.1-2.6,32.9-9.2c-4.5,9.5-10.8,18-18.7,25.3  c-2.3,2.2,0.2,5.2,2.8,4.8c7.3-1.1,14.4-2.7,21.3-4.9C421.6,185.9,418.7,188.8,415.9,191.7z"/><g><path class="st2" d="M481.5,524h-432C26.1,524,7,504.9,7,481.5v-432C7,26.1,26.1,7,49.5,7h432C504.9,7,524,26.1,524,49.5v432   C524,504.9,504.9,524,481.5,524z M49.5,12C28.8,12,12,28.8,12,49.5v432c0,20.7,16.8,37.5,37.5,37.5h432c20.7,0,37.5-16.8,37.5-37.5   v-432c0-20.7-16.8-37.5-37.5-37.5H49.5z"/><path class="st2" d="M481.5,531h-432C22.2,531,0,508.8,0,481.5v-432C0,22.2,22.2,0,49.5,0h432C508.8,0,531,22.2,531,49.5v432   C531,508.8,508.8,531,481.5,531z M49.5,19C32.7,19,19,32.7,19,49.5v432c0,16.8,13.7,30.5,30.5,30.5h432c16.8,0,30.5-13.7,30.5-30.5   v-432c0-16.8-13.7-30.5-30.5-30.5H49.5z"/></g><g><path class="st2" d="M422.8,167.2c-7.6,3.1-15.5,5.6-23.5,7.3c7.8-8.8,13.7-19,17.4-30.3c0.8-2.3-2.2-4.8-4.3-3.3   c-6.3,4.8-12.7,9.7-20.2,12.5c-7.6,2.8-15.5,2.3-23.2,0.2c-14.1-3.9-26.8-11.8-41.4-13.8c-26.3-3.5-53.3,10.5-64.6,34.7   c-5.9,12.8-7.4,26.9-4.1,40.5c-28.2,2.8-54.8-8.4-79.5-21.1c-19.4-10-47.9-22.1-51.2-46.6c-0.4-2.8-5.1-2.7-5.6,0   c-5.2,29.6-6.4,64.4,14.9,87.7c-6.7-1-13-3.4-19-7.2c-1.7-1.1-4.5,0.3-4.2,2.4c3,28.2,21,53.2,46.3,65.3   c-6.1,0.1-12.3-0.5-18.4-1.9c-1.9-0.4-4.4,1.3-3.5,3.5c9.4,23,29.6,40.6,53.7,46.4c-19.3,16.7-45.6,24.7-71,20.6   c-3.5-0.6-5.4,3.6-2.4,5.7c23.1,16.4,50.3,27.3,78.6,30.3c13.8,1.4,27.8,0.6,41.3-2.6c14.7-3.5,28.4-10.1,41.6-17.2   c13.4-7.2,26.9-14.4,39-23.6c10.5-8,20-17.3,28.2-27.6c16.3-20.4,28.1-44.2,35.2-69.3c4-14.1,6.4-28.6,7.5-43.2   c0.4-5.2,1.3-9.1,4.8-13c3.1-3.5,6.5-6.8,9.8-10.2c6.8-7.1,13.6-14.2,20.5-21.3C427.4,170.1,425.6,166,422.8,167.2z M404.4,185.7   c-5.1,5.3-10.8,10.3-15.2,16.1c-4,5.2-4.3,10.9-4.8,17.2c-0.6,6.9-1.5,13.7-2.8,20.5c-4.8,25.4-14.3,49.9-28.5,71.6   c-15.1,23-35.1,40.9-59,54.3c-26,14.6-52,28.3-82.6,28.4c-27.9,0.1-54.7-8.7-78.6-22.6c25.1,0.1,49.6-9.4,67.8-27.2   c1.4-1.4,0.9-4.5-1.3-4.8c-22.7-3.7-42.8-18.3-53.1-38.9c9,1.4,18.1,1.3,27.1-0.2c2.9-0.5,2.5-4.7,0-5.4c-26.8-8-47.7-31.5-52.7-59   c7.5,3.8,15.8,5.7,24.3,5.7c2.3,0,3.9-3.2,2-4.8c-22.2-19-24.1-48.7-20.6-75.9c9.1,18.2,31.2,28.5,48.4,37.5   c26.7,13.9,55.7,25.9,86.3,22c1.6,0.6,3.9-0.6,3.3-2.8c-6.7-26.5,5.9-55.4,31-66.9c12.4-5.7,26.6-6.7,39.7-2.9   c13.3,3.8,25.5,11.3,39.3,13.2c12.6,1.8,23.1-2.6,32.9-9.2c-4.5,9.5-10.8,18-18.7,25.3c-2.3,2.2,0.2,5.2,2.8,4.8   c7.3-1.1,14.4-2.7,21.3-4.9C410,179.8,407.2,182.7,404.4,185.7z"/><path class="st2" d="M210.7,403.3c-4.4,0-8.9-0.2-13.3-0.7c-28.1-3-55.7-13.6-79.8-30.7c-2.3-1.6-3.1-4.3-2.1-6.8   c1-2.5,3.6-3.9,6.4-3.4c22.6,3.7,46.7-2.7,65.2-17c-22.8-7-41.5-24.1-50.7-46.6c-0.7-1.7-0.4-3.5,0.8-4.9c1.3-1.6,3.6-2.4,5.6-2   c2.4,0.6,4.9,1,7.3,1.3c-21.2-13.8-35.5-36.7-38.2-62c-0.3-1.8,0.6-3.6,2.3-4.7c1.8-1.2,4.1-1.2,5.7-0.1c3.6,2.3,7.3,4,11.1,5.2   c-13.8-19.2-17.4-46.8-10.8-84.1c0.5-2.5,2.7-4.2,5.5-4.1c2.6,0.1,4.7,1.8,5.1,4.2c2.8,21,25.9,32.6,44.4,42   c1.9,0.9,3.7,1.9,5.5,2.8c23.4,12,48.7,22.8,75.3,21.1c-2.6-13.2-0.9-26.7,4.9-39.3c11.7-25,39.3-39.8,67.2-36.1   c9,1.2,17.3,4.6,25.3,7.9c5.3,2.2,10.9,4.4,16.4,6c8.2,2.2,15.3,2.2,21.7-0.1c7.1-2.6,13.3-7.4,19.4-12l0.2-0.1   c1.9-1.3,4.3-1.3,6.2,0.2c1.9,1.4,2.7,3.8,2,6c-3,9.1-7.4,17.6-13.1,25.3c5.3-1.4,10.6-3.3,15.9-5.4c2.2-0.9,4.5-0.3,5.9,1.7   c1.5,2.2,1.4,5.3-0.4,7.2c-6.9,7.1-13.8,14.3-20.5,21.3c-1,1-1.9,2-2.9,2.9c-2.3,2.3-4.7,4.8-6.9,7.2c-3,3.4-3.8,6.7-4.2,11.5   c-1.2,15.3-3.7,30-7.6,43.7c-7.3,25.9-19.7,50.2-35.7,70.2c-8.3,10.5-18,19.9-28.6,28c-12,9.1-25.5,16.4-38.6,23.4l-0.8,0.4   c-12.2,6.5-26.7,13.7-42.2,17.4C230.1,402.2,220.5,403.3,210.7,403.3z M120.7,366.5c-0.5,0-0.6,0.3-0.7,0.4c0,0.1-0.2,0.4,0.4,0.8   c23.5,16.7,50.2,27,77.4,29.9c13.8,1.4,27.4,0.5,40.5-2.5c14.9-3.6,29.1-10.6,41-17l0.8-0.4c12.9-6.9,26.2-14.1,37.9-23   c10.3-7.9,19.7-17,27.8-27.2c15.6-19.5,27.6-43.2,34.8-68.4c3.8-13.4,6.3-27.7,7.4-42.7c0.4-5.7,1.5-10.1,5.4-14.5   c2.2-2.5,4.7-5,7-7.4c0.9-1,1.9-1.9,2.8-2.9c6.7-7,13.6-14.2,20.5-21.3c0.1-0.1,0.1-0.3,0.1-0.4c0-0.2-0.1-0.3-0.1-0.4   c-7.9,3.2-16,5.7-23.8,7.4l-7.4,1.6l5-5.7c7.6-8.6,13.3-18.5,16.9-29.4c0-0.2-0.3-0.4-0.5-0.5l-0.1,0.1   c-6.3,4.8-12.9,9.8-20.7,12.7c-7.4,2.7-15.5,2.8-24.7,0.3c-5.9-1.6-11.5-3.9-17-6.2c-8.1-3.3-15.7-6.4-24.1-7.6   c-25.7-3.4-51.2,10.3-62,33.3c-5.3,11.6-6.9,24-4.5,36.2c-3.7-26.2,10-52.7,33.6-63.5c12.9-6,27.7-7,41.4-3   c5.4,1.6,10.7,3.7,15.8,5.8c7.8,3.2,15.1,6.2,23.1,7.3c10.3,1.5,19.9-1.2,31.2-8.8l7.6-5.1l-3.9,8.2c-4.6,9.8-11.1,18.5-19.3,26.1   c-0.1,0.1-0.1,0.1-0.1,0.1c0,0.1,0.4,0.4,0.8,0.3c7.3-1.1,14.4-2.7,20.9-4.8l8.8-2.8l-6.2,6.9c-1.8,2-3.7,4.1-5.6,6   c-0.9,1-1.8,1.9-2.7,2.9l0,0c-1.6,1.6-3.2,3.2-4.7,4.8c-3.6,3.5-7.3,7.2-10.3,11.1c-3.4,4.4-3.8,9.4-4.2,15.1l-0.1,0.7   c-0.6,7.3-1.6,14.1-2.8,20.8c-5,26.5-14.7,50.9-28.9,72.5c-14.9,22.6-35,41.2-59.9,55.1c-27.9,15.7-53.4,28.6-83.8,28.7   c-26.7,0.1-53.5-7.6-79.9-22.9l-8.1-4.7l9.3,0c0.1,0,0.3,0,0.4,0c24.9,0,48.2-9.4,65.6-26.5c0.1-0.1,0.1-0.4,0-0.6   c-23.7-3.9-44.2-18.9-54.9-40.2l-2.2-4.3l4.8,0.7c8.6,1.3,17.4,1.3,26.2-0.2c0-0.1,0-0.2-0.1-0.4c-0.1-0.1-0.1-0.2-0.1-0.2   c-27.9-8.3-49.3-32.2-54.5-61l-0.9-5l4.5,2.3c7.1,3.6,14.9,5.4,23.2,5.4c0.1,0,0.3-0.3,0.3-0.4c-19.1-16.4-26.1-41.9-21.4-78.1   l1-8.1l3.7,7.3c8,16.1,26.7,25.7,43.2,34.3c1.4,0.7,2.8,1.4,4.1,2.1c44.3,23,67.7,23.9,84.8,21.7l0.6-0.1l0.5,0.2   c-0.1-0.2-0.1-0.4-0.1-0.6l-2.6,0.3c-29,2.9-56-8.6-80.9-21.4c-1.7-0.9-3.6-1.8-5.4-2.8c-19.5-9.8-43.8-22.1-47.1-45.6   c-0.2-0.1-0.5,0-0.7,0.1c-6.9,39.4-2.2,67.4,14.3,85.5l4.8,5.2l-7-1c-7-1-13.7-3.6-20-7.6c-0.1,0-0.3,0-0.4,0.1   c3,27.2,20.1,51.4,44.9,63.2l9.6,4.6l-10.6,0.2c-6.5,0.1-12.9-0.6-19-2c-0.1,0-0.4,0.1-0.6,0.2c9.2,22.5,28.6,39.2,51.9,44.8   l4.7,1.1l-3.7,3.2c-20.1,17.4-47.4,25.3-73,21.2C120.9,366.6,120.8,366.5,120.7,366.5z M142,373.3c22.9,11.9,46.1,18,69.1,18   c0.2,0,0.3,0,0.5,0c29.2-0.1,54.1-12.8,81.4-28.1c24.2-13.6,43.7-31.5,58.1-53.5c13.8-21.1,23.2-44.8,28.1-70.7   c1.2-6.5,2.1-13.1,2.8-20.3l0.1-0.7c0.5-6.3,1-12.2,5.3-17.8c3.2-4.2,7-8,10.7-11.6c1.5-1.5,3.1-3.1,4.6-4.7   c0.7-0.8,1.5-1.6,2.2-2.4c-4.2,1-8.6,1.9-13,2.6c-2.5,0.4-5-0.9-6.1-3.1c-1-2-0.6-4.3,1.2-5.9c5.4-5,10.1-10.6,13.9-16.7   c-9.1,4.7-17.6,6.2-26.7,4.9c-8.6-1.2-16.6-4.5-24.3-7.6c-5-2-10.1-4.2-15.3-5.6c-12.6-3.7-26.1-2.7-38,2.8   c-23.4,10.7-36.1,38.2-29.6,64c0.5,1.7,0,3.5-1.3,4.7c-1.2,1.1-3,1.6-4.6,1.2c-31.7,3.9-61.9-9.1-87.3-22.3   c-1.3-0.7-2.7-1.4-4.1-2.1c-14.2-7.4-31.5-16.3-41.5-30c-2.7,30.6,4.1,52.4,20.5,66.4c1.6,1.3,2.1,3.5,1.4,5.5   c-0.8,2.2-2.8,3.7-5,3.7c-7.3,0-14.3-1.3-20.8-3.9c6.3,24.4,25.8,45.1,49.9,52.3c2.3,0.6,3.9,3,3.8,5.6c-0.1,2.4-1.7,4.3-4.1,4.7   c-7.7,1.3-15.4,1.6-23,0.8c10.4,17.7,28.4,30,49,33.3c1.8,0.2,3.3,1.5,3.9,3.3c0.7,2,0.2,4.3-1.2,5.7   C186.1,361.8,164.9,371.4,142,373.3z M199.1,341.7C199.1,341.7,199.1,341.7,199.1,341.7C199.1,341.7,199.1,341.7,199.1,341.7z    M116.8,229.8C116.8,229.9,116.8,229.9,116.8,229.8C116.8,229.9,116.8,229.9,116.8,229.8z"/></g></svg>