<?xml version="1.0" ?><svg id="Capa_1" style="enable-background:new 0 0 532 534;" version="1.1" viewBox="0 0 532 534" xml:space="preserve" xmlns="http://www.w3.org/2000/svg" xmlns:xlink="http://www.w3.org/1999/xlink"><style type="text/css">
	.st0{fill:#B1444F;}
	.st1{fill:#F1F1F5;}
	.st2{fill:#435289;}
</style><path class="st0" d="M484,522.5H52c-22,0-40-18-40-40v-432c0-22,18-40,40-40h432c22,0,40,18,40,40v432  C524,504.5,506,522.5,484,522.5z"/><path class="st1" d="M420.3,261.8c-0.5-15.2-1.8-30.4-4.1-45.4c-1.2-8.1-2.8-16.2-4.5-24.2c-1.4-6.2-2.2-13.4-9.2-15.5  c-7.6-2.3-15.9-3.3-23.8-4.6c-6.9-1.2-13.8-2.3-20.8-3.2c-15.5-2.2-31.1-3.7-46.7-4.8c-60.5-4-121.5,0.4-180.8,13.1  c0,0.3,0.1,0.7,0,1.1c-6.7,34.4-8.7,69.2-7.6,104.2c0.5,17.4,1.7,34.7,3.1,52c0.6,7.9,0.6,16.3,2.3,24.1c1.9,8.6,7.7,11.5,15.8,12.9  c60.8,10.2,123.8,11.2,185.1,6.1c15.8-1.3,31.7-3.1,47.4-5.5c7.5-1.1,15.2-2.2,22.6-3.7c3.9-0.8,7.8-1.8,9.9-5.5  c1.8-3.1,2.3-7,3-10.4C418.5,322.7,421.2,292.2,420.3,261.8z M313.2,283.7c-17.3,9.4-34.6,18.9-51.9,28.3c-4.3,2.4-8.6,4.7-13,7.1  c-1.8,1-4.1,2.8-6,3.3c-3.3,0.8-2.8-1.9-3-4.6c-0.6-10.2-1-20.3-1.5-30.5c-1-21.4-1.3-42.9-2.7-64.3c0.3,0.1,0.6,0.1,1,0.1  c5.2-0.4,9.9,2.7,14.4,5c4.1,2.1,8.2,4.2,12.2,6.4c8.1,4.3,16.1,8.9,23.9,13.7c8.1,5,16,10.3,23.7,15.8c3.4,2.4,7.3,4.8,9.7,8.2  C324.3,278.3,317.8,281.2,313.2,283.7z"/><g><path class="st2" d="M481.5,525h-432C26.1,525,7,505.9,7,482.5v-432C7,27.1,26.1,8,49.5,8h432C504.9,8,524,27.1,524,50.5v432   C524,505.9,504.9,525,481.5,525z M49.5,13C28.8,13,12,29.8,12,50.5v432c0,20.7,16.8,37.5,37.5,37.5h432c20.7,0,37.5-16.8,37.5-37.5   v-432c0-20.7-16.8-37.5-37.5-37.5H49.5z"/><path class="st2" d="M481.5,532h-432C22.2,532,0,509.8,0,482.5v-432C0,23.2,22.2,1,49.5,1h432C508.8,1,531,23.2,531,50.5v432   C531,509.8,508.8,532,481.5,532z M49.5,20C32.7,20,19,33.7,19,50.5v432c0,16.8,13.7,30.5,30.5,30.5h432c16.8,0,30.5-13.7,30.5-30.5   v-432c0-16.8-13.7-30.5-30.5-30.5H49.5z"/></g><g><path class="st2" d="M410.9,186.4c-1.2-5.8-2.2-12.6-6.2-17.1c-4.5-5.1-12-5.6-18.3-6.8c-15.6-3-31.3-5.5-47.1-7.4   c-65.2-7.9-131.5-5.8-196.1,5.9c-8.2,1.5-16.3,3.1-24.4,4.9c-2.5,0.6-2.7,3.3-1.4,4.9c-7.9,31.7-9.4,64.5-8.6,97.1   c0.4,16.7,1.4,33.4,2.6,50.1c0.6,8.3,1.3,16.7,1.9,25c0.5,6.3,0.7,13,3.9,18.6c6.6,11.6,23.7,11.3,35.2,12.8   c16.4,2.1,32.8,3.7,49.2,4.8c33.6,2.2,67.3,2.3,100.9,0.1c16.5-1.1,32.9-2.6,49.3-4.7c8-1,15.9-2.1,23.9-3.4   c7.5-1.2,16-1.7,23.1-4.5c5.8-2.2,8.8-6.7,10.4-12.5c2.1-7.8,3.5-15.8,4.8-23.7c2.7-15.9,4.4-31.9,5-47.9   C420.3,250.3,417.6,217.9,410.9,186.4z M404.8,346.5c-0.7,3.4-1.2,7.4-3,10.4c-2.1,3.7-6,4.7-9.9,5.5c-7.5,1.5-15.1,2.6-22.6,3.7   c-15.7,2.3-31.5,4.1-47.4,5.5c-61.3,5.2-124.4,4.2-185.1-6.1c-8.1-1.4-14-4.2-15.8-12.9c-1.7-7.8-1.7-16.2-2.3-24.1   c-1.4-17.3-2.6-34.7-3.1-52c-1.1-35,0.9-69.8,7.6-104.2c0.1-0.4,0.1-0.7,0-1.1c59.3-12.7,120.3-17.1,180.8-13.1   c15.6,1,31.2,2.6,46.7,4.8c6.9,1,13.9,2,20.8,3.2c7.8,1.3,16.2,2.3,23.8,4.6c6.9,2.1,7.8,9.3,9.2,15.5c1.8,8,3.3,16.1,4.5,24.2   c2.3,15,3.6,30.2,4.1,45.4C414,286.3,411.3,316.8,404.8,346.5z"/><path class="st2" d="M253.2,384.4c-17.2,0-34.5-0.6-51.8-1.7c-16.4-1.1-33-2.7-49.4-4.8c-1.7-0.2-3.6-0.4-5.5-0.6   c-11.5-1.1-25.8-2.5-32.2-13.9c-3.3-5.7-3.8-12.4-4.2-18.2l-0.1-1.8c-0.3-4.2-0.6-8.4-1-12.5c-0.3-4.2-0.6-8.3-0.9-12.5   c-1.5-20.3-2.3-35.8-2.6-50.3c-0.9-38.6,1.7-69.3,8.4-96.7c-0.6-1.5-0.7-3.2-0.2-4.8c0.7-2,2.3-3.5,4.5-4   c7.6-1.7,15.6-3.3,24.6-4.9c65.5-11.9,131.8-13.9,197.2-5.9c15.3,1.8,31.3,4.3,47.3,7.4c0.9,0.2,1.9,0.3,2.8,0.5   c6,1,12.8,2.2,17.4,7.4c4.2,4.7,5.5,11.2,6.6,16.9c0.1,0.6,0.2,1.2,0.4,1.8c6.7,31.7,9.5,64.3,8.2,97.1c-0.6,15.9-2.3,32.1-5,48.3   c-1.3,7.7-2.7,15.9-4.9,24c-2.1,7.6-6.2,12.5-12.5,14.9c-5.7,2.2-12,3.1-18.1,3.9c-2,0.3-3.9,0.5-5.7,0.8c-7.4,1.2-15.3,2.3-24,3.4   c-15.6,2-31.7,3.5-49.5,4.7C286.4,383.9,269.9,384.4,253.2,384.4z M126.4,174.1c-6.1,31.8-8.5,65.2-7.3,102.3   c0.5,18.8,1.9,37.6,3.1,51.8c0.2,2.2,0.3,4.3,0.4,6.5c0.3,5.8,0.6,11.7,1.8,17.2c1.3,6.1,4.7,8.8,13,10.2   c56.5,9.6,118.5,11.6,184.2,6.1c16.3-1.4,32.2-3.3,47.2-5.5l0.8-0.1c7.1-1,14.5-2.1,21.6-3.6c4-0.8,6.3-1.6,7.5-3.8   c1.2-2,1.7-4.8,2.2-7.5c0.1-0.6,0.2-1.3,0.4-1.9l0,0c6.4-29,9.1-59.3,8.2-89.8c-0.5-15.6-1.9-30.8-4.1-45c-1.2-8.1-2.7-16.1-4.5-24   c-0.1-0.6-0.3-1.2-0.4-1.8c-1.3-6.1-2.4-9.9-6.4-11.2c-5.7-1.7-12.1-2.7-18.2-3.7c-1.7-0.3-3.5-0.5-5.2-0.8c-6.4-1.1-13-2.1-19.4-3   l-1.3-0.2c-15.3-2.2-30.9-3.8-46.4-4.8C244.3,157.7,184.6,161.9,126.4,174.1z"/></g><g><path class="st2" d="M316.3,262.4c-2.4-3.4-5.9-5.8-9.2-8.3c-4.4-3.3-8.9-6.5-13.4-9.7c-10.6-7.3-21.5-14.1-32.8-20.4   c-5.4-3-10.8-5.8-16.3-8.5c-5.3-2.5-10.6-5.7-16.6-5.1c-1,0.1-1.8,0.6-2.2,1.3c-1.2-0.6-2.8,0-2.9,1.7c-0.9,24.2,0.3,48.6,1.5,72.8   c0.3,5.9,0.6,11.8,0.9,17.7c0.2,4.4-0.4,10.2,1.5,14.3c4.1,8.9,16.4-1.4,21.4-4.2c20.9-11.5,42.1-22.6,62.7-34.5   C317.7,275.9,321.3,269.5,316.3,262.4z M305,276.9c-17.3,9.4-34.6,18.9-51.9,28.3c-4.3,2.4-8.6,4.7-13,7.1c-1.8,1-4.1,2.8-6,3.3   c-3.3,0.8-2.8-1.9-3-4.6c-0.6-10.2-1-20.3-1.5-30.5c-1-21.4-1.3-42.9-2.7-64.3c0.3,0.1,0.6,0.1,1,0.1c5.2-0.4,9.9,2.7,14.4,5   c4.1,2.1,8.2,4.2,12.2,6.4c8.1,4.3,16.1,8.9,23.9,13.7c8.1,5,16,10.3,23.7,15.8c3.4,2.4,7.3,4.8,9.7,8.2   C316.1,271.5,309.6,274.4,305,276.9z"/><path class="st2" d="M232.1,325.2c-0.9,0-1.8-0.1-2.7-0.4c-1.8-0.5-4.2-1.8-5.8-5.2c-1.8-3.8-1.8-8.3-1.8-12.4c0-1.2,0-2.3,0-3.3   l-0.9-17.7c-1.2-23.9-2.4-48.6-1.5-73.1c0.1-2,1.1-3.6,2.7-4.6c0.8-0.5,1.7-0.7,2.5-0.7c0.9-0.6,1.9-0.9,3-1.1   c6.1-0.6,11.5,2,16.2,4.3c0.8,0.4,1.5,0.7,2.3,1.1c5.9,2.9,11.3,5.7,16.5,8.6c11.2,6.2,22.3,13.1,33.1,20.6   c4.5,3.2,9.1,6.5,13.5,9.8l1.2,0.9c3.1,2.3,6.3,4.7,8.8,8.2l0,0c3.3,4.7,3.3,8.9,2.6,11.5c-1,4.3-4.3,8-9.2,10.7   c-13.8,7.9-28,15.6-41.8,23.1c-6.9,3.7-14,7.6-21,11.4c-0.7,0.4-1.7,1-2.8,1.8C242.8,321.6,237.2,325.2,232.1,325.2z M230.6,219.9   c0.7,11.8,1.1,23.8,1.5,35.4c0.3,8.2,0.6,16.7,1,25c0.2,3.3,0.3,6.7,0.5,10c0.3,6.7,0.6,13.6,1,20.4c0,0.2,0,0.5,0,0.8   c0.6-0.3,1.2-0.7,1.8-1.1c0.7-0.4,1.3-0.9,2-1.2c1.4-0.8,2.8-1.5,4.1-2.2c3-1.6,5.9-3.2,8.9-4.9c8.7-4.7,17.3-9.4,25.9-14.1   c8.7-4.7,17.4-9.5,26-14.2h0l0.9-0.5c1.9-1,5.1-2.7,5.4-4c0.1-0.4-0.2-1.1-0.7-1.9c-1.7-2.4-4.6-4.4-7.3-6.3   c-0.5-0.4-1-0.7-1.5-1.1c-8-5.7-15.9-11-23.5-15.7c-7.9-4.9-15.9-9.4-23.7-13.6c-4-2.2-8.1-4.3-12.2-6.4c-0.7-0.4-1.4-0.8-2.2-1.1   C235.8,221.8,233.2,220.4,230.6,219.9z"/></g></svg>